<?xml version="1.0" encoding="UTF-8"?>
<svg version="1.1" xmlns="http://www.w3.org/2000/svg" width="800" height="420">
<path d="M0 0 C2.54880856 2.23536284 5.02043564 4.53025504 7.4765625 6.8671875 C8.00894531 7.37233887 8.54132813 7.87749023 9.08984375 8.39794922 C40.35882571 38.26406207 62.13422281 79.8073052 63.6027832 123.6340332 C64.74775926 178.22620513 49.80632766 223.9136709 12.0859375 264.16015625 C8.71894151 267.65316257 5.24866364 270.82098899 1.4765625 273.8671875 C0.98317383 274.27291992 0.48978516 274.67865234 -0.01855469 275.09667969 C-8.12460776 281.74718631 -16.38758055 287.67471739 -25.5234375 292.8671875 C-26.15588379 293.23054199 -26.78833008 293.59389648 -27.43994141 293.96826172 C-40.31789778 301.30697562 -57.39935294 310.8671875 -72.5234375 310.8671875 C-72.8534375 311.5271875 -73.1834375 312.1871875 -73.5234375 312.8671875 C-75.42749023 313.35375977 -75.42749023 313.35375977 -77.95703125 313.68359375 C-78.90247803 313.80782715 -79.8479248 313.93206055 -80.82202148 314.06005859 C-81.85786377 314.18203613 -82.89370605 314.30401367 -83.9609375 314.4296875 C-85.57174194 314.62038818 -85.57174194 314.62038818 -87.21508789 314.81494141 C-133.95483536 320.03495231 -179.9628298 312.0792615 -218.5234375 283.8671875 C-219.39226562 283.15304687 -220.26109375 282.43890625 -221.15625 281.703125 C-223.46624391 279.7020711 -223.46624391 279.7020711 -226.5234375 278.8671875 C-227.5134375 277.3821875 -227.5134375 277.3821875 -228.5234375 275.8671875 C-240.60476575 277.62748455 -252.4615651 280.45143576 -264.36376953 283.13183594 C-267.103716 283.74767152 -269.84475745 284.35843277 -272.5859375 284.96875 C-273.42447266 285.1593399 -274.26300781 285.34992981 -275.12695312 285.54629517 C-276.29967773 285.80689224 -276.29967773 285.80689224 -277.49609375 286.07275391 C-278.17937744 286.22660553 -278.86266113 286.38045715 -279.56665039 286.53897095 C-281.5234375 286.8671875 -281.5234375 286.8671875 -285.5234375 286.8671875 C-284.30093808 280.76824136 -282.66760234 274.98721961 -280.5546875 269.140625 C-280.27371216 268.34870758 -279.99273682 267.55679016 -279.70324707 266.74087524 C-278.81494467 264.23951018 -277.91964348 261.74073047 -277.0234375 259.2421875 C-276.12834663 256.73612628 -275.23481696 254.22952789 -274.34362793 251.72207642 C-273.79186176 250.17070376 -273.2377284 248.62017017 -272.68078613 247.07064819 C-268.99615929 238.11252904 -268.99615929 238.11252904 -269.5234375 228.8671875 C-270.81174821 226.39121536 -272.14191849 223.97689119 -273.5234375 221.5546875 C-282.31489321 205.49012226 -288.5532806 187.94704666 -291.5234375 169.8671875 C-291.77746338 168.37638672 -291.77746338 168.37638672 -292.03662109 166.85546875 C-293.43063147 158.03306701 -293.98014387 149.31969327 -294.21142578 140.40673828 C-294.27376473 138.10510583 -294.35698238 135.80482261 -294.44140625 133.50390625 C-294.68894561 125.68766828 -294.45562503 118.48586557 -292.5234375 110.8671875 C-292.23684106 109.33159269 -291.96217788 107.79372489 -291.69921875 106.25390625 C-286.97402218 80.06590298 -277.32328551 55.38513411 -261.5234375 33.8671875 C-261.10030273 33.28469238 -260.67716797 32.70219727 -260.24121094 32.10205078 C-255.1658676 25.15856552 -249.80601886 18.76685758 -243.5234375 12.8671875 C-242.6984375 12.0421875 -241.8734375 11.2171875 -241.0234375 10.3671875 C-240.1984375 9.5421875 -239.3734375 8.7171875 -238.5234375 7.8671875 C-238.02199219 7.31933594 -237.52054687 6.77148438 -237.00390625 6.20703125 C-177.5159059 -56.90986672 -66.84961765 -56.1809804 0 0 Z " fill="#3B58A7" transform="translate(513.5234375,63.1328125)"/>
<path d="M0 0 C15.1304357 5.02002053 26.40254233 28.0010981 34.1875 40.67578125 C36.01819766 43.64462526 37.89108671 46.58458071 39.76953125 49.5234375 C40.68632123 50.96085886 41.60301168 52.39834371 42.51953125 53.8359375 C40.1315662 44.12414148 36.62586245 34.96625249 32.92773438 25.6875 C30.40526305 19.1194156 28.68986587 13.88809327 29.51953125 6.8359375 C31.95703125 3.8359375 31.95703125 3.8359375 34.51953125 1.8359375 C34.84953125 1.5059375 35.17953125 1.1759375 35.51953125 0.8359375 C37.62890625 0.59765625 37.62890625 0.59765625 40.26953125 0.5234375 C41.130625 0.48605469 41.99171875 0.44867188 42.87890625 0.41015625 C47.04957464 1.08264568 49.29913446 3.18238247 51.78173828 6.54614258 C53.15142974 8.63148869 54.43856638 10.75001543 55.70703125 12.8984375 C56.18043945 13.69064697 56.65384766 14.48285645 57.14160156 15.29907227 C64.153342 27.15675108 70.69245094 38.91397966 75.20703125 51.9609375 C77.65682024 59.01310304 80.31027794 64.36890671 85.51953125 69.8359375 C86.27878906 70.70863281 87.03804687 71.58132812 87.8203125 72.48046875 C91.17470808 76.31798514 94.32674518 79.9019337 98.51953125 82.8359375 C98.84244141 81.88074219 98.84244141 81.88074219 99.171875 80.90625 C104.48560563 68.80018543 115.06225522 49.52295482 127.51953125 43.8359375 C132.51896124 43.22197241 135.50367588 43.76498928 139.51953125 46.8359375 C141.78177561 51.36042622 141.08250958 56.82817294 139.75390625 61.56640625 C134.36528566 75.32256796 125.61459848 87.8891882 117.63061523 100.24047852 C114.59038588 104.97958414 111.95249133 109.75670094 109.51953125 114.8359375 C115.64651721 112.1770568 120.25708163 108.74263642 125.3515625 104.44921875 C130.84057597 99.86073286 136.65857665 95.68417059 142.39941406 91.41943359 C144.56036652 89.80543801 146.70927629 88.17652947 148.85546875 86.54296875 C149.91761597 85.7372644 149.91761597 85.7372644 151.0012207 84.9152832 C152.34582041 83.89472524 153.68826461 82.8713183 155.02807617 81.84448242 C165.18159635 74.16406871 165.18159635 74.16406871 171.08203125 73.3359375 C175.19019787 73.93348901 177.31898718 75.23084349 180.51953125 77.8359375 C183.01634765 81.5811621 182.73231364 83.26986207 182.1015625 87.57421875 C180.36068996 94.33908587 173.58383314 98.34880466 168.4140625 102.48046875 C165.6996569 104.68935752 163.10234361 106.97556831 160.51953125 109.3359375 C156.30826796 113.16977625 151.95832384 116.78246689 147.53125 120.36328125 C143.39186702 123.761763 139.33835498 127.25678901 135.29003906 130.76293945 C132.96220561 132.77294693 130.6832726 134.71987458 128.171875 136.5 C126.22167344 137.83133558 126.22167344 137.83133558 125.51953125 140.8359375 C133.60560162 138.99226017 141.23895365 136.60540825 148.95703125 133.5859375 C151.04984128 132.78919326 153.14361283 131.99497058 155.23828125 131.203125 C156.28242188 130.80834961 157.3265625 130.41357422 158.40234375 130.00683594 C163.23707453 128.19078261 168.08217382 126.41641159 172.95703125 124.7109375 C173.78968506 124.40381836 174.62233887 124.09669922 175.48022461 123.78027344 C181.01598063 121.88063388 185.79467083 121.30685397 191.51953125 122.8359375 C195.36122703 124.77325052 197.23321759 127.11333635 198.83203125 131.1484375 C198.43974251 135.77744466 197.22822732 137.55302926 194.00390625 140.80859375 C182.2447679 150.40449439 166.74987363 154.67798597 152.68554688 159.69921875 C148.3845937 161.24342279 144.10658014 162.8453678 139.83203125 164.4609375 C138.57817285 164.93241893 137.32427282 165.40378969 136.0703125 165.875 C135.22855469 166.19210937 134.38679687 166.50921875 133.51953125 166.8359375 C133.51953125 167.8259375 133.51953125 168.8159375 133.51953125 169.8359375 C141.31887131 170.15123929 148.59740101 169.16096534 156.26953125 167.8359375 C180.34809281 163.95656657 180.34809281 163.95656657 186.89453125 167.8359375 C188.64750211 171.0721914 189.11071602 173.15870233 189.18359375 176.7734375 C188.10816549 180.11359117 186.38509542 181.95164077 183.51953125 183.8359375 C179.19919059 185.6763797 174.76098987 187.03884649 170.26953125 188.3984375 C169.01060059 188.78974854 167.75166992 189.18105957 166.45458984 189.58422852 C154.77691234 193.16461313 143.27558469 196.28033905 131.14453125 197.8359375 C119.84108119 199.38663757 111.62488968 203.82325292 102.09423828 209.82348633 C96.77906738 213.14870498 91.55558623 216.01784865 85.51953125 217.8359375 C84.93816406 218.0215625 84.35679687 218.2071875 83.7578125 218.3984375 C69.19431575 221.24505467 56.26978242 217.39382826 43.92578125 209.55859375 C33.62440505 202.18374488 24.6653466 193.01587949 20.51953125 180.8359375 C20.51953125 180.1759375 20.51953125 179.5159375 20.51953125 178.8359375 C19.97466064 178.86623047 19.42979004 178.89652344 18.8684082 178.92773438 C6.54873385 179.59028797 -5.7681492 179.98035098 -18.10546875 180.0859375 C-19.35545654 180.10720703 -20.60544434 180.12847656 -21.89331055 180.15039062 C-23.06933838 180.15490234 -24.24536621 180.15941406 -25.45703125 180.1640625 C-26.49939941 180.1734082 -27.54176758 180.18275391 -28.61572266 180.19238281 C-32.9546969 179.65250703 -35.57396851 177.96124814 -38.29296875 174.5859375 C-39.86733662 170.94003297 -40.09243754 168.77973635 -39.48046875 164.8359375 C-35.50063628 157.53177439 -28.12581929 154.22954266 -20.47265625 151.93359375 C-13.27809396 150.1570495 -6.04854993 149.17344907 1.3046875 148.36328125 C4.16691969 147.89377779 6.05968297 147.31430018 8.51953125 145.8359375 C7.68491467 137.95179157 0.97878921 130.08090515 -4.6875 124.765625 C-12.91168884 118.93697911 -22.95106068 116.22610521 -32.54296875 113.5234375 C-68.04637771 103.47131645 -68.04637771 103.47131645 -77.48046875 91.8359375 C-78.92956673 87.48864356 -79.26820136 83.36720676 -78.48046875 78.8359375 C-76.37389334 75.96451317 -73.65300087 74.42220356 -70.48046875 72.8359375 C-55.75050553 71.17199721 -40.79660339 78.33191428 -27.10546875 83.0859375 C-25.48318992 83.64617225 -23.86079469 84.20607006 -22.23828125 84.765625 C-18.31766232 86.11852867 -14.39863073 87.47593548 -10.48046875 88.8359375 C-10.15046875 88.5059375 -9.82046875 88.1759375 -9.48046875 87.8359375 C-10.32867187 87.10890625 -11.176875 86.381875 -12.05078125 85.6328125 C-12.61055664 85.15295898 -13.17033203 84.67310547 -13.74707031 84.17871094 C-15.00144438 83.10362733 -16.25600616 82.02876271 -17.51074219 80.95410156 C-20.73676515 78.19054481 -23.96007272 75.42399269 -27.17578125 72.6484375 C-28.36043241 71.62732024 -29.54532475 70.60648272 -30.73046875 69.5859375 C-31.31352783 69.08376709 -31.89658691 68.58159668 -32.49731445 68.06420898 C-35.86824185 65.17491064 -39.29232089 62.38078243 -42.79296875 59.6484375 C-55.9244649 49.25176534 -55.9244649 49.25176534 -58.48046875 42.8359375 C-59.16712977 36.77043183 -57.91863097 33.66794927 -54.48046875 28.8359375 C-51.86145399 26.69937282 -50.0986207 25.95094251 -46.79296875 25.3359375 C-38.34169604 26.61160131 -31.3314572 32.13445413 -24.85546875 37.3984375 C-23.28743656 38.64576198 -21.7184061 39.89183245 -20.1484375 41.13671875 C-18.97933838 42.06798584 -18.97933838 42.06798584 -17.78662109 43.01806641 C-14.29422584 45.7710174 -10.73585256 48.43199223 -7.16796875 51.0859375 C-0.21890239 56.26792593 6.66450339 61.53033375 13.51953125 66.8359375 C12.89980622 63.77808931 11.90387767 61.57450812 10.21875 58.95703125 C9.74171631 58.20953613 9.26468262 57.46204102 8.77319336 56.69189453 C7.99794312 55.4947583 7.99794312 55.4947583 7.20703125 54.2734375 C6.11835121 52.5717031 5.02981385 50.86987741 3.94140625 49.16796875 C3.37873047 48.29221191 2.81605469 47.41645508 2.23632812 46.51416016 C-0.54433944 42.17628712 -3.29302157 37.81832319 -6.04296875 33.4609375 C-6.5428833 32.67130615 -7.04279785 31.8816748 -7.55786133 31.06811523 C-8.47634117 29.6158073 -9.39171373 28.16152717 -10.30322266 26.70483398 C-11.27860729 25.15639571 -12.2804849 23.62468195 -13.2890625 22.09765625 C-15.39403548 18.10165836 -15.20573255 14.22078928 -14.48046875 9.8359375 C-11.4839249 2.91288791 -7.84599061 -1.14077408 0 0 Z " fill="#FBFCFD" transform="translate(334.48046875,91.1640625)"/>
<path d="M0 0 C13.72383543 8.28820831 22.642646 26.33868808 30.69799805 39.52368164 C33.43445884 43.98908978 36.19309508 48.4326378 39.19921875 52.72265625 C39.64483154 53.36082275 40.09044434 53.99898926 40.54956055 54.65649414 C42.15957796 56.45303061 42.15957796 56.45303061 46 56 C47.21578809 50.99156478 46.66413707 47.80381581 45.0625 42.9375 C44.84303711 42.26066162 44.62357422 41.58382324 44.39746094 40.88647461 C43.02323299 36.7438003 41.50230783 32.6681531 39.91796875 28.6015625 C39.56017334 27.6825415 39.20237793 26.76352051 38.83374023 25.81665039 C38.12759262 24.02209053 37.41018124 22.23190946 36.67993164 20.44702148 C34.55876154 15.10890609 32.79512541 9.81874314 33 4 C34.5625 1.4375 34.5625 1.4375 37 0 C39.9375 -0.5625 39.9375 -0.5625 43 0 C47.71993624 3.9767637 50.63339496 8.84969212 53.75 14.125 C54.27223145 15.00373779 54.79446289 15.88247559 55.33251953 16.7878418 C61.57331907 27.46168863 66.98436992 38.52628181 71.3449707 50.09936523 C74.71763217 59.03307381 79.0543099 66.29481755 85.9921875 72.91015625 C86.75462769 73.6386377 86.75462769 73.6386377 87.5324707 74.38183594 C88.98960654 75.74434048 90.4804274 77.07055371 91.97265625 78.39453125 C94 81 94 81 94.02734375 83.953125 C90.90965388 93.19950559 84.39860749 101.09972044 76 106 C72.93603779 107.44504649 69.86243697 108.745498 66.69921875 109.95703125 C64.05030286 110.92453787 64.05030286 110.92453787 61.83984375 112.1171875 C59.12713428 113.41882729 56.95586782 113.32128998 54 113 C51.54550287 109.3182543 51.79367409 106.64477306 51.91015625 102.40234375 C51.93060262 100.86263369 51.95077588 99.32291999 51.97070312 97.78320312 C52.01391007 95.36971708 52.06207244 92.95647327 52.11645508 90.54321289 C52.89904586 75.49820684 52.89904586 75.49820684 46.6875 62.375 C43.38186781 60.68374632 41.66153717 60.31346178 38 61 C33.72030329 64.53819345 32.16938067 67.41599905 30.875 72.76953125 C30.63535522 73.74681938 30.63535522 73.74681938 30.39086914 74.74385071 C28.75513527 81.61310529 27.52563903 88.56085768 26.36190796 95.52307129 C25.74120101 99.23527464 25.09812584 102.9436165 24.45703125 106.65234375 C24.33237991 107.37648468 24.20772858 108.10062561 24.07929993 108.84671021 C22.78284741 116.33871548 21.30015383 123.78872196 19.76171875 131.234375 C18.61607576 136.89796395 17.87671438 142.13745076 17.90234375 147.9296875 C17.90556641 149.21875 17.90878906 150.5078125 17.91210938 151.8359375 C17.92046267 153.18229236 17.92892759 154.52864652 17.9375 155.875 C17.9425217 157.24479004 17.94708343 158.61458185 17.95117188 159.984375 C17.96292746 163.3229619 17.97936036 166.66145815 18 170 C8.66803253 170.38023621 -0.66494084 170.70591399 -10 171 C-11.05880371 171.03689941 -12.11760742 171.07379883 -13.20849609 171.11181641 C-15.95154542 171.20101011 -18.69349989 171.26224742 -21.4375 171.3125 C-22.23961914 171.34214844 -23.04173828 171.37179687 -23.86816406 171.40234375 C-27.59041636 171.44106679 -29.77553642 171.13538143 -32.9921875 169.1953125 C-35 167 -35 167 -35.6875 163.5625 C-34.95527352 159.76823549 -34.07880473 158.34981503 -30.9453125 156.11401367 C-23.53420138 151.86992481 -15.7364306 150.14355477 -7.375 148.875 C-0.8235667 147.83740389 5.59008573 146.7204758 12 145 C13.21887693 135.94548564 8.45933181 129.70810405 3.2578125 122.62890625 C-2.80173817 115.24295624 -10.2142656 111.57519021 -19.1875 108.6953125 C-20.04827148 108.40824432 -20.90904297 108.12117615 -21.79589844 107.82540894 C-24.52743009 106.91534088 -27.26313178 106.01887889 -30 105.125 C-50.48051424 98.41110368 -50.48051424 98.41110368 -60.03515625 94.26171875 C-60.68021118 93.98317047 -61.32526611 93.70462219 -61.98986816 93.41763306 C-67.18633618 91.08893809 -72.3590174 88.2819652 -75 83 C-75.45793728 76.70336241 -75.45793728 76.70336241 -73.89941406 74.30957031 C-69.38399211 71.19636679 -62.27801064 72.33161613 -57 73 C-51.25179166 74.20471432 -45.76001647 76.25200139 -40.25 78.25 C-38.82234772 78.74819962 -37.39396161 79.24430143 -35.96484375 79.73828125 C-30.86760759 81.51038262 -25.78916947 83.32797376 -20.73706055 85.22558594 C-19.780979 85.58426758 -18.82489746 85.94294922 -17.83984375 86.3125 C-17.031521 86.62316406 -16.22319824 86.93382812 -15.39038086 87.25390625 C-11.3425824 88.51731878 -7.21934778 88.81694804 -3 89 C-2.24585046 87.16883741 -2.24585046 87.16883741 -2 85 C-3.02444294 83.28741005 -3.02444294 83.28741005 -4.75 81.8125 C-5.39839844 81.20792969 -6.04679687 80.60335937 -6.71484375 79.98046875 C-10.14160567 77.01060842 -13.65428512 74.15443371 -17.1875 71.3125 C-19.80965894 69.15650265 -22.31608568 66.92432897 -24.8125 64.625 C-28.74682091 61.02898057 -32.84195024 57.74605708 -37.0625 54.5 C-43.70738344 49.37171771 -50.30692321 44.03961518 -55 37 C-54.8616853 33.19634586 -54.49915469 30.74873203 -52.375 27.5625 C-48.83165133 25.23134956 -47.21448243 25.26413799 -43 26 C-35.01921877 29.81151104 -28.10400422 35.93817485 -21.19384766 41.37792969 C-13.29148343 47.59688216 -5.20399529 53.54610756 2.921875 59.46826172 C4.80051055 60.8529609 6.65482921 62.26259002 8.5 63.69140625 C9.469375 64.43261719 10.43875 65.17382812 11.4375 65.9375 C12.24058594 66.56527344 13.04367187 67.19304687 13.87109375 67.83984375 C15.93701211 69.23797827 15.93701211 69.23797827 18.28515625 68.69140625 C18.85105469 68.46324219 19.41695313 68.23507813 20 68 C19.62576365 61.70035475 16.44691534 57.12356413 13.25 51.875 C12.38677124 50.4353186 12.38677124 50.4353186 11.50610352 48.96655273 C6.94027612 41.40806062 2.1877467 33.97504927 -2.68457031 26.61083984 C-11.87113353 12.72017298 -11.87113353 12.72017298 -11 6 C-8.32926405 0.41573392 -6.13388391 -0.55212519 0 0 Z " fill="#3A57A6" transform="translate(335,96)"/>
<path d="M0 0 C0.66 0.33 1.32 0.66 2 1 C-3.61 6.61 -9.22 12.22 -15 18 C-15.66 17.67 -16.32 17.34 -17 17 C-12.88524836 12.04943944 -8.61923992 7.60171545 -3.69921875 3.4453125 C-1.90381734 1.95747294 -1.90381734 1.95747294 0 0 Z " fill="#7596C4" transform="translate(283,63)"/>
<path d="M0 0 C0 5.94 0 11.88 0 18 C-0.33 18 -0.66 18 -1 18 C-1.06058594 17.16855469 -1.12117188 16.33710938 -1.18359375 15.48046875 C-1.26738281 14.39378906 -1.35117187 13.30710938 -1.4375 12.1875 C-1.55931641 10.56908203 -1.55931641 10.56908203 -1.68359375 8.91796875 C-1.90212461 5.94010095 -1.90212461 5.94010095 -3 3 C-3.66 3 -4.32 3 -5 3 C-5 2.34 -5 1.68 -5 1 C-2 0 -2 0 0 0 Z M-5 3 C-5 3.66 -5 4.32 -5 5 C-6.32 4.67 -7.64 4.34 -9 4 C-7 3 -7 3 -5 3 Z " fill="#5870B3" transform="translate(352,238)"/>
<path d="M0 0 C2.02744797 3.04117196 3.06650449 5.48143999 4 9 C3.55078125 11.19140625 3.55078125 11.19140625 3 13 C2.15841464 11.73461631 1.32700252 10.46246221 0.5 9.1875 C-0.19609375 8.12595703 -0.19609375 8.12595703 -0.90625 7.04296875 C-2 5 -2 5 -2 2 C-1.34 2 -0.68 2 0 2 C0 1.34 0 0.68 0 0 Z " fill="#4E68AF" transform="translate(374,134)"/>
<path d="M0 0 C2.74277578 3.19990508 4.6302836 6.00499382 6 10 C2.18315774 8.44499019 -0.19195732 5.96404505 -3 3 C-2.01 2.01 -1.02 1.02 0 0 Z " fill="#4460AB" transform="translate(344,149)"/>
<path d="M0 0 C3.63 0.33 7.26 0.66 11 1 C11 1.66 11 2.32 11 3 C7.7 3 4.4 3 1 3 C0.67 2.01 0.34 1.02 0 0 Z " fill="#566EB2" transform="translate(467,259)"/>
<path d="M0 0 C0.33 1.32 0.66 2.64 1 4 C6.445 3.505 6.445 3.505 12 3 C8.52630934 4.73684533 6.92380063 5.30084112 3.25 5.625 C2.45078125 5.69976562 1.6515625 5.77453125 0.828125 5.8515625 C-0.07679688 5.92503906 -0.07679688 5.92503906 -1 6 C-0.67 4.02 -0.34 2.04 0 0 Z " fill="#9DC0D8" transform="translate(229,344)"/>
</svg>
